<?xml version="1.0" encoding="utf-8"?><!-- Uploaded to: SVG Repo, www.svgrepo.com, Generator: SVG Repo Mixer Tools -->
<svg fill="#000000" width="800px" height="800px" viewBox="0 0 24 24" id="maps-pin" data-name="Flat Color" xmlns="http://www.w3.org/2000/svg" class="icon flat-color"><path id="secondary" d="M12,18a1,1,0,0,1-1-1V9a1,1,0,0,1,2,0v8A1,1,0,0,1,12,18Z" style="fill: rgb(44, 169, 188);"></path><path id="primary" d="M15,22H9a1,1,0,0,1,0-2h6a1,1,0,0,1,0,2ZM12,2a4,4,0,1,0,4,4A4,4,0,0,0,12,2Z" style="fill: rgb(0, 0, 0);"></path></svg>